<svg xmlns="http://www.w3.org/2000/svg" viewBox="0 0 512 512" width="512" height="512">
<defs>
  <radialGradient id="sky" cx="50%" cy="46%" r="62%"><stop offset="0" stop-color="#4b1f9e"/><stop offset=".42" stop-color="#1b0d4a"/><stop offset="1" stop-color="#05070f"/></radialGradient>
  <linearGradient id="floor" x1="0" y1="0" x2="0" y2="1"><stop offset="0" stop-color="#1a0f45"/><stop offset="1" stop-color="#05070f"/></linearGradient>
  <linearGradient id="road" x1="0" y1="0" x2="0" y2="1"><stop offset="0" stop-color="#241a5c"/><stop offset="1" stop-color="#0a0d22"/></linearGradient>
  <linearGradient id="sun" x1="0" y1="0" x2="0" y2="1"><stop offset="0" stop-color="#fff3b0"/><stop offset=".35" stop-color="#ffc94d"/><stop offset=".72" stop-color="#ff5a8a"/><stop offset="1" stop-color="#ff2bd6"/></linearGradient>
  <linearGradient id="body" x1="0" y1="0" x2="0" y2="1"><stop offset="0" stop-color="#5a3ce0"/><stop offset=".55" stop-color="#2a1a86"/><stop offset="1" stop-color="#120c40"/></linearGradient>
  <linearGradient id="glass" x1="0" y1="0" x2="0" y2="1"><stop offset="0" stop-color="#22e6ff" stop-opacity=".55"/><stop offset="1" stop-color="#22e6ff" stop-opacity=".08"/></linearGradient>
  <filter id="glow" x="-50%" y="-50%" width="200%" height="200%"><feGaussianBlur stdDeviation="7" result="b"/><feMerge><feMergeNode in="b"/><feMergeNode in="SourceGraphic"/></feMerge></filter>
  <filter id="soft" x="-50%" y="-50%" width="200%" height="200%"><feGaussianBlur stdDeviation="22"/></filter>
  <mask id="sunCut"><rect x="0" y="0" width="512" height="268" fill="#fff"/>
    <rect x="0" y="206" width="512" height="5" fill="#000"/><rect x="0" y="224" width="512" height="8" fill="#000"/><rect x="0" y="243" width="512" height="11" fill="#000"/></mask>
  <clipPath id="rr"><rect width="512" height="512" rx="112"/></clipPath>
</defs>
<g clip-path="url(#rr)">
  <rect width="512" height="512" fill="url(#sky)"/>
  <rect y="268" width="512" height="244" fill="url(#floor)"/>
  <g stroke="#ff2bd6" stroke-opacity=".35" stroke-width="2"><line x1="0" y1="281" x2="512" y2="281"/><line x1="0" y1="298" x2="512" y2="298"/><line x1="0" y1="322" x2="512" y2="322"/><line x1="0" y1="356" x2="512" y2="356"/><line x1="0" y1="404" x2="512" y2="404"/><line x1="0" y1="472" x2="512" y2="472"/><line x1="256" y1="268" x2="-420" y2="512"/><line x1="256" y1="268" x2="-180" y2="512"/><line x1="256" y1="268" x2="-20" y2="512"/><line x1="256" y1="268" x2="532" y2="512"/><line x1="256" y1="268" x2="692" y2="512"/><line x1="256" y1="268" x2="932" y2="512"/></g>
  <g>
    <circle cx="256" cy="258" r="120" fill="#ff2bd6" opacity=".55" filter="url(#soft)"/>
    <circle cx="256" cy="268" r="118" fill="url(#sun)" mask="url(#sunCut)"/>
  </g>
  <path d="M244 268L268 268L476 512L36 512Z" fill="url(#road)"/>
  <g fill="#ff2bd6" filter="url(#glow)"><path d="M255.4 276L256.6 276L257.2 284L254.8 284Z"/><path d="M254.57 294L257.43 294L258.2 308L253.8 308Z"/><path d="M253.44210526315788 322L258.5578947368421 322L259.6 344L252.4 344Z"/><path d="M251.86461538461538 364L260.1353846153846 364L261.6 398L250.4 398Z"/><path d="M249.58490566037736 428L262.41509433962267 428L264.5 480L247.5 480Z"/></g>
  <g stroke="#22e6ff" stroke-width="6" stroke-linecap="round" filter="url(#glow)"><path d="M244 268L36 512M268 268L476 512"/></g>
  <line x1="0" y1="268" x2="512" y2="268" stroke="#22e6ff" stroke-width="3" filter="url(#glow)"/>
  <g>
    <ellipse cx="256" cy="440" rx="150" ry="16" fill="#000" opacity=".65"/>
    <rect x="138" y="404" width="46" height="42" rx="9" fill="#05060d"/>
    <rect x="328" y="404" width="46" height="42" rx="9" fill="#05060d"/>
    <path d="M178 352L202 304Q208 296 218 296L294 296Q304 296 310 304L334 352Z" fill="#161b44"/>
    <path d="M194 346L211 311L301 311L318 346Z" fill="url(#glass)"/>
    <path d="M124 420L124 382Q128 358 158 350L354 350Q384 358 388 382L388 420Q388 434 374 434L138 434Q124 434 124 420Z" fill="url(#body)" stroke="#8a5cff" stroke-width="3"/>
    <path d="M140 352L372 352" stroke="#b9a6ff" stroke-width="3" stroke-linecap="round" opacity=".7"/>
    <rect x="178" y="330" width="6" height="22" fill="#0d1030"/><rect x="328" y="330" width="6" height="22" fill="#0d1030"/>
    <rect x="128" y="320" width="256" height="13" rx="4" fill="#0d1030" stroke="#22e6ff" stroke-width="3" filter="url(#glow)"/>
    <g filter="url(#glow)"><rect x="138" y="370" width="80" height="16" rx="6" fill="#ff2bd6"/><rect x="294" y="370" width="80" height="16" rx="6" fill="#ff2bd6"/></g>
    <rect x="146" y="375" width="64" height="5" rx="2.5" fill="#ffd6f6"/><rect x="302" y="375" width="64" height="5" rx="2.5" fill="#ffd6f6"/>
    <rect x="222" y="396" width="68" height="20" rx="4" fill="#0a0c1c" stroke="#22e6ff" stroke-opacity=".7" stroke-width="2"/>
    <g fill="#ffc94d" filter="url(#glow)"><circle cx="236" cy="428" r="6"/><circle cx="276" cy="428" r="6"/></g>
  </g>
</g>
</svg>